<?xml version="1.0" encoding="UTF-8"?>
<!DOCTYPE svg PUBLIC "-//W3C//DTD SVG 1.1//EN" "http://www.w3.org/Graphics/SVG/1.1/DTD/svg11.dtd">
<!-- Creator: CorelDRAW -->
<svg xmlns="http://www.w3.org/2000/svg" xml:space="preserve" width="1514px" height="281px" version="1.1"
     style="shape-rendering:geometricPrecision; text-rendering:geometricPrecision; image-rendering:optimizeQuality; fill-rule:evenodd; clip-rule:evenodd"
     viewBox="0 0 2207.63 410.11">
 <defs>
  <style type="text/css">
   <![CDATA[
    .fil1 {fill:#540000;fill-rule:nonzero}
    .fil0 {fill:#B21617;fill-rule:nonzero}
    .fil2 {fill:#EB2123;fill-rule:nonzero}
   ]]>
  </style>
  <clipPath id="id0">
      <rect x="279.22" y="27.84" width="1650.96" height="342.88"/>
     </clipPath>
 </defs>
 <g id="Слой_x0020_1">
  <metadata id="CorelCorpID_0Corel-Layer"/>
  <g id="_2746474206000">
   <path class="fil0"
         d="M2207.63 181.45c-379.65,-14.27 -629.23,-97.9 -450.08,228.66 116.47,-20.26 71.4,-54.15 445.13,-85.27 -30.46,-37.07 -91.8,-46.84 -139.5,-65.32 49.6,-18.08 98.85,-48.53 144.45,-78.07z"/>
   <path class="fil1"
         d="M1924.75 296.68c-65.5,20.86 -103.88,89.76 -167.2,113.43 -48.94,-108.1 -97.86,-112.37 -98.77,-196.97 61.97,9.54 217.66,-38.73 279.32,-26.7 -10.56,57.16 -2.78,53.09 -13.35,110.24z"/>
   <path class="fil0"
         d="M0 181.45c379.65,-14.27 629.23,-97.9 450.08,228.66 -116.47,-20.26 -71.4,-54.15 -445.14,-85.27 30.47,-37.07 91.8,-46.84 139.51,-65.32 -49.6,-18.08 -98.86,-48.53 -144.45,-78.07z"/>
   <path class="fil1"
         d="M282.88 296.68c65.49,20.86 103.88,89.76 167.2,113.43 48.94,-108.1 97.85,-112.37 98.76,-196.97 -61.96,9.54 -217.65,-38.73 -279.31,-26.7 10.56,57.16 2.78,53.09 13.35,110.24z"/>
   <path class="fil2"
         d="M1963.65 111.59c-595.97,-151.64 -1130.88,-145.91 -1719.68,0l0 174.92c567.34,152.02 1161.77,149.49 1719.68,0l0 -174.92z"/>
  </g>
 </g>
</svg>
